<?xml version="1.0" encoding="UTF-8"?>
<svg version="1.1" xmlns="http://www.w3.org/2000/svg" width="1024" height="1024">
<path d="M0 0 C337.92 0 675.84 0 1024 0 C1024 337.92 1024 675.84 1024 1024 C686.08 1024 348.16 1024 0 1024 C0 686.08 0 348.16 0 0 Z " fill="#FEFEFE" transform="translate(0,0)"/>
<path d="M0 0 C0.65136381 -0.00205263 1.30272761 -0.00410527 1.97382972 -0.0062201 C4.15361543 -0.01186866 6.33333752 -0.01043551 8.51312923 -0.00901413 C10.09296664 -0.011599 11.67280339 -0.0146125 13.25263923 -0.01801753 C17.59219279 -0.02607654 21.93172979 -0.02787649 26.27128994 -0.028615 C30.95246296 -0.03046748 35.63362743 -0.03801585 40.31479549 -0.04475021 C50.55052264 -0.05832664 60.78624587 -0.06435729 71.02198052 -0.06876087 C77.41529088 -0.07152467 83.80859973 -0.0757623 90.20190907 -0.08026505 C107.90871651 -0.09245721 125.61552274 -0.10275637 143.32233429 -0.10614014 C145.02195682 -0.10646949 145.02195682 -0.10646949 146.75591516 -0.10680549 C147.89168562 -0.10702377 149.02745607 -0.10724204 150.19764382 -0.10746694 C152.4990896 -0.1079104 154.80053538 -0.10835696 157.10198116 -0.10880661 C158.24357419 -0.10902804 159.38516722 -0.10924947 160.56135397 -0.10947761 C179.05294059 -0.11342434 197.54448776 -0.13087479 216.03605915 -0.15416613 C235.02843186 -0.17789483 254.02078479 -0.19034269 273.01317257 -0.19150805 C283.67367764 -0.192424 294.33413133 -0.19815607 304.99462223 -0.21632767 C314.07367266 -0.23174919 323.15265584 -0.23683704 332.23171688 -0.22858956 C336.86115393 -0.22469023 341.49045562 -0.22557756 346.11987591 -0.23964691 C350.364649 -0.25242888 354.60918563 -0.25115083 358.8539586 -0.2390562 C360.38293945 -0.23710661 361.9119373 -0.24014323 363.44089431 -0.24890056 C377.70355676 -0.32536673 391.44181118 0.90264539 402.33220577 11.01814651 C408.99629743 18.20463519 412.39021097 25.51603931 412.47795773 35.30525589 C412.49079296 36.55335037 412.5036282 37.80144485 412.51685238 39.08736038 C412.5250179 40.44579546 412.53246199 41.80423504 412.53923702 43.16267776 C412.54331255 43.8490683 412.54738808 44.53545883 412.5515871 45.24264908 C412.57239996 48.87175058 412.58672551 52.50081475 412.59612179 56.12996292 C412.60721139 59.87611191 412.64165316 63.62167103 412.68129349 67.36761093 C412.70742809 70.2518207 412.71581045 73.13588868 412.71940327 76.02020645 C412.72427293 77.40132025 412.73589793 78.78242755 412.75444126 80.16342545 C412.77877351 82.09467138 412.77545372 84.02620573 412.77092648 85.95759964 C412.77972584 87.60496109 412.77972584 87.60496109 412.78870296 89.28560257 C412.18424405 92.8123977 411.07180554 93.9405665 408.30095577 96.13142776 C405.60173702 97.36970901 405.60173702 97.36970901 402.61345577 98.44392776 C392.39269431 102.51480352 383.78754738 109.49527572 378.92595577 119.50642776 C375.89588635 127.82002161 375.52791211 139.02174631 378.98845577 147.25642776 C379.71916956 148.5712069 380.48836717 149.86561318 381.30095577 151.13142776 C381.63997921 151.73986526 381.97900265 152.34830276 382.32829952 152.97517776 C387.75174945 161.77622107 397.08618982 165.79889674 406.51579952 168.99080276 C409.32796753 170.14249008 410.4968996 170.74731145 412.30095577 173.13142776 C412.6819067 175.70273209 412.6819067 175.70273209 412.68913937 178.82112503 C412.69859585 179.98986664 412.70805233 181.15860825 412.71779537 182.36276627 C412.70868633 184.2611248 412.70868633 184.2611248 412.69939327 186.19783401 C412.70226345 187.50163513 412.70513363 188.80543625 412.70809078 190.14874649 C412.71251627 192.91367088 412.70608357 195.67830474 412.69206905 198.44319534 C412.67509392 201.9611914 412.68474135 205.47849487 412.70278645 208.99646473 C412.71635062 212.37614047 412.70679529 215.7556387 412.69939327 219.13533401 C412.70546597 220.38673676 412.71153866 221.6381395 412.71779537 222.92746353 C412.62348671 234.80327479 410.33575132 244.12821995 402.30095577 253.13142776 C391.27919452 262.95149784 379.44296896 264.72845148 365.17034054 264.63936234 C363.55175911 264.64397786 361.93318189 264.65033513 360.31461334 264.65827131 C355.89117061 264.67489838 351.46807511 264.66674858 347.04463148 264.65432644 C342.26472361 264.64525103 337.48487414 264.659258 332.70497799 264.67024612 C323.35075384 264.68800938 313.99665825 264.68420113 304.64242911 264.67259556 C297.03836975 264.66355288 289.43434636 264.66234085 281.83028316 264.66669083 C280.7470079 264.66730376 279.66373263 264.66791669 278.54763085 264.6685482 C276.34680675 264.66982713 274.14598267 264.67112398 271.9451586 264.67243856 C251.32008044 264.68383794 230.69507345 264.67074073 210.07000697 264.6492371 C192.38230583 264.63136671 174.6947097 264.634471 157.00701046 264.65291214 C136.45448071 264.67433019 115.9020133 264.68273936 95.34947395 264.67046309 C93.15685877 264.66918892 90.96424358 264.66793144 88.77162838 264.66669083 C87.15352059 264.66576517 87.15352059 264.66576517 85.50272375 264.66482082 C77.90999067 264.66137073 70.31729722 264.66718892 62.72457027 264.67660904 C53.468419 264.68784076 44.21240338 264.68476425 34.9562676 264.66348606 C30.23588139 264.6529915 25.51572114 264.64882664 20.79533672 264.66208267 C16.46998704 264.67404542 12.14507171 264.66738036 7.81976116 264.64617246 C6.25934363 264.6417228 4.69888904 264.64393571 3.13849556 264.65367562 C-9.5144962 264.72656568 -20.13973083 262.94940665 -29.69904423 254.13142776 C-37.9311314 245.98849678 -41.74746908 238.83120446 -41.89191532 227.11946487 C-41.90797825 225.93150818 -41.92404118 224.74355148 -41.94059086 223.5195961 C-41.98514157 218.12612455 -42.02648241 212.73279412 -42.04914188 207.33919144 C-42.06251995 204.49023484 -42.09045539 201.64198796 -42.13117313 198.793293 C-42.18986497 194.68582952 -42.20778162 190.57913208 -42.22248173 186.47127151 C-42.2451511 185.19517517 -42.26782047 183.91907883 -42.2911768 182.6043129 C-42.28832676 181.41950836 -42.28547672 180.23470383 -42.28254032 179.01399612 C-42.29062717 177.97206604 -42.29871403 176.93013596 -42.30704594 175.85663223 C-41.48139486 172.15587291 -39.81450346 171.15518176 -36.69904423 169.13142776 C-34.33966923 168.11189651 -34.33966923 168.11189651 -31.94904423 167.31892776 C-22.26342369 163.61475443 -15.03338055 156.86242445 -10.44513798 147.60017776 C-6.41930518 137.83718254 -6.3585831 128.51289275 -10.37482548 118.73299026 C-16.09832756 107.48858794 -24.96481198 101.67718328 -36.03913212 96.49031448 C-40.59912126 94.3312737 -40.59912126 94.3312737 -41.69904423 92.13142776 C-41.81071286 90.21914444 -41.85832094 88.30299029 -41.87604618 86.38753128 C-41.88888142 85.18190033 -41.90171665 83.97626938 -41.91494083 82.73410416 C-41.92232777 81.42276001 -41.9297147 80.11141586 -41.93732548 78.76033401 C-41.941401 78.09187895 -41.94547653 77.42342388 -41.94967556 76.7347126 C-41.97055437 73.18832458 -41.98484135 69.64197531 -41.99421024 66.09553909 C-42.0052058 62.4576245 -42.03951891 58.8203333 -42.07938194 55.18263721 C-42.10573912 52.36590948 -42.11391938 49.54932497 -42.11749172 46.73248482 C-42.12464469 44.74799073 -42.15101381 42.76359528 -42.17788029 40.77927017 C-42.14924328 28.70022057 -39.33624452 18.87084345 -30.69904423 10.13142776 C-21.73856307 2.64524881 -11.53060303 0.01242065 0 0 Z " fill="#FEFEFE" transform="translate(326.6990442276001,253.86857223510742)"/>
<path d="M0 0 C0.65136381 -0.00205263 1.30272761 -0.00410527 1.97382972 -0.0062201 C4.15361543 -0.01186866 6.33333752 -0.01043551 8.51312923 -0.00901413 C10.09296664 -0.011599 11.67280339 -0.0146125 13.25263923 -0.01801753 C17.59219279 -0.02607654 21.93172979 -0.02787649 26.27128994 -0.028615 C30.95246296 -0.03046748 35.63362743 -0.03801585 40.31479549 -0.04475021 C50.55052264 -0.05832664 60.78624587 -0.06435729 71.02198052 -0.06876087 C77.41529088 -0.07152467 83.80859973 -0.0757623 90.20190907 -0.08026505 C107.90871651 -0.09245721 125.61552274 -0.10275637 143.32233429 -0.10614014 C145.02195682 -0.10646949 145.02195682 -0.10646949 146.75591516 -0.10680549 C147.89168562 -0.10702377 149.02745607 -0.10724204 150.19764382 -0.10746694 C152.4990896 -0.1079104 154.80053538 -0.10835696 157.10198116 -0.10880661 C158.24357419 -0.10902804 159.38516722 -0.10924947 160.56135397 -0.10947761 C179.05294059 -0.11342434 197.54448776 -0.13087479 216.03605915 -0.15416613 C235.02843186 -0.17789483 254.02078479 -0.19034269 273.01317257 -0.19150805 C283.67367764 -0.192424 294.33413133 -0.19815607 304.99462223 -0.21632767 C314.07367266 -0.23174919 323.15265584 -0.23683704 332.23171688 -0.22858956 C336.86115393 -0.22469023 341.49045562 -0.22557756 346.11987591 -0.23964691 C350.364649 -0.25242888 354.60918563 -0.25115083 358.8539586 -0.2390562 C360.38293945 -0.23710661 361.9119373 -0.24014323 363.44089431 -0.24890056 C377.70355676 -0.32536673 391.44181118 0.90264539 402.33220577 11.01814651 C408.99629743 18.20463519 412.39021097 25.51603931 412.47795773 35.30525589 C412.49079296 36.55335037 412.5036282 37.80144485 412.51685238 39.08736038 C412.5250179 40.44579546 412.53246199 41.80423504 412.53923702 43.16267776 C412.54331255 43.8490683 412.54738808 44.53545883 412.5515871 45.24264908 C412.57239996 48.87175058 412.58672551 52.50081475 412.59612179 56.12996292 C412.60721139 59.87611191 412.64165316 63.62167103 412.68129349 67.36761093 C412.70742809 70.2518207 412.71581045 73.13588868 412.71940327 76.02020645 C412.72427293 77.40132025 412.73589793 78.78242755 412.75444126 80.16342545 C412.77877351 82.09467138 412.77545372 84.02620573 412.77092648 85.95759964 C412.77972584 87.60496109 412.77972584 87.60496109 412.78870296 89.28560257 C412.18424405 92.8123977 411.07180554 93.9405665 408.30095577 96.13142776 C405.60173702 97.36970901 405.60173702 97.36970901 402.61345577 98.44392776 C392.39269431 102.51480352 383.78754738 109.49527572 378.92595577 119.50642776 C375.89588635 127.82002161 375.52791211 139.02174631 378.98845577 147.25642776 C379.71916956 148.5712069 380.48836717 149.86561318 381.30095577 151.13142776 C381.63997921 151.73986526 381.97900265 152.34830276 382.32829952 152.97517776 C387.75174945 161.77622107 397.08618982 165.79889674 406.51579952 168.99080276 C409.32796753 170.14249008 410.4968996 170.74731145 412.30095577 173.13142776 C412.6819067 175.70273209 412.6819067 175.70273209 412.68913937 178.82112503 C412.69859585 179.98986664 412.70805233 181.15860825 412.71779537 182.36276627 C412.70868633 184.2611248 412.70868633 184.2611248 412.69939327 186.19783401 C412.70226345 187.50163513 412.70513363 188.80543625 412.70809078 190.14874649 C412.71251627 192.91367088 412.70608357 195.67830474 412.69206905 198.44319534 C412.67509392 201.9611914 412.68474135 205.47849487 412.70278645 208.99646473 C412.71635062 212.37614047 412.70679529 215.7556387 412.69939327 219.13533401 C412.70546597 220.38673676 412.71153866 221.6381395 412.71779537 222.92746353 C412.62348671 234.80327479 410.33575132 244.12821995 402.30095577 253.13142776 C391.27919452 262.95149784 379.44296896 264.72845148 365.17034054 264.63936234 C363.55175911 264.64397786 361.93318189 264.65033513 360.31461334 264.65827131 C355.89117061 264.67489838 351.46807511 264.66674858 347.04463148 264.65432644 C342.26472361 264.64525103 337.48487414 264.659258 332.70497799 264.67024612 C323.35075384 264.68800938 313.99665825 264.68420113 304.64242911 264.67259556 C297.03836975 264.66355288 289.43434636 264.66234085 281.83028316 264.66669083 C280.7470079 264.66730376 279.66373263 264.66791669 278.54763085 264.6685482 C276.34680675 264.66982713 274.14598267 264.67112398 271.9451586 264.67243856 C251.32008044 264.68383794 230.69507345 264.67074073 210.07000697 264.6492371 C192.38230583 264.63136671 174.6947097 264.634471 157.00701046 264.65291214 C136.45448071 264.67433019 115.9020133 264.68273936 95.34947395 264.67046309 C93.15685877 264.66918892 90.96424358 264.66793144 88.77162838 264.66669083 C87.15352059 264.66576517 87.15352059 264.66576517 85.50272375 264.66482082 C77.90999067 264.66137073 70.31729722 264.66718892 62.72457027 264.67660904 C53.468419 264.68784076 44.21240338 264.68476425 34.9562676 264.66348606 C30.23588139 264.6529915 25.51572114 264.64882664 20.79533672 264.66208267 C16.46998704 264.67404542 12.14507171 264.66738036 7.81976116 264.64617246 C6.25934363 264.6417228 4.69888904 264.64393571 3.13849556 264.65367562 C-9.5144962 264.72656568 -20.13973083 262.94940665 -29.69904423 254.13142776 C-37.9311314 245.98849678 -41.74746908 238.83120446 -41.89191532 227.11946487 C-41.90797825 225.93150818 -41.92404118 224.74355148 -41.94059086 223.5195961 C-41.98514157 218.12612455 -42.02648241 212.73279412 -42.04914188 207.33919144 C-42.06251995 204.49023484 -42.09045539 201.64198796 -42.13117313 198.793293 C-42.18986497 194.68582952 -42.20778162 190.57913208 -42.22248173 186.47127151 C-42.2451511 185.19517517 -42.26782047 183.91907883 -42.2911768 182.6043129 C-42.28832676 181.41950836 -42.28547672 180.23470383 -42.28254032 179.01399612 C-42.29062717 177.97206604 -42.29871403 176.93013596 -42.30704594 175.85663223 C-41.48139486 172.15587291 -39.81450346 171.15518176 -36.69904423 169.13142776 C-34.33966923 168.11189651 -34.33966923 168.11189651 -31.94904423 167.31892776 C-22.26342369 163.61475443 -15.03338055 156.86242445 -10.44513798 147.60017776 C-6.41930518 137.83718254 -6.3585831 128.51289275 -10.37482548 118.73299026 C-16.09832756 107.48858794 -24.96481198 101.67718328 -36.03913212 96.49031448 C-40.59912126 94.3312737 -40.59912126 94.3312737 -41.69904423 92.13142776 C-41.81071286 90.21914444 -41.85832094 88.30299029 -41.87604618 86.38753128 C-41.88888142 85.18190033 -41.90171665 83.97626938 -41.91494083 82.73410416 C-41.92232777 81.42276001 -41.9297147 80.11141586 -41.93732548 78.76033401 C-41.941401 78.09187895 -41.94547653 77.42342388 -41.94967556 76.7347126 C-41.97055437 73.18832458 -41.98484135 69.64197531 -41.99421024 66.09553909 C-42.0052058 62.4576245 -42.03951891 58.8203333 -42.07938194 55.18263721 C-42.10573912 52.36590948 -42.11391938 49.54932497 -42.11749172 46.73248482 C-42.12464469 44.74799073 -42.15101381 42.76359528 -42.17788029 40.77927017 C-42.14924328 28.70022057 -39.33624452 18.87084345 -30.69904423 10.13142776 C-21.73856307 2.64524881 -11.53060303 0.01242065 0 0 Z M-17.72248173 22.77986526 C-18.16849735 23.34963089 -18.61451298 23.91939651 -19.07404423 24.50642776 C-19.76627079 25.35334183 -19.76627079 25.35334183 -20.47248173 26.21736526 C-22.90544666 30.01403029 -23.94518751 33.52231324 -24.06891727 38.01008987 C-24.09781544 38.95134216 -24.1267136 39.89259445 -24.15648746 40.86236954 C-24.23264904 45.13720272 -24.30594279 49.41147698 -24.3443079 53.68684769 C-24.37244724 55.94010979 -24.42027846 58.19321265 -24.48786259 60.44563675 C-24.58530583 63.7051014 -24.62332944 66.96054009 -24.64826298 70.22127151 C-24.68844044 71.22455994 -24.7286179 72.22784836 -24.77001286 73.26153946 C-24.76751645 78.715846 -24.76751645 78.715846 -21.77170658 83.0438118 C-19.47385643 84.585005 -17.15708753 85.8659556 -14.69904423 87.13142776 C-1.51622644 95.85358918 6.6688728 107.69507514 10.30095577 123.13142776 C10.58905475 126.05426628 10.63533063 128.94582177 10.61345577 131.88142776 C10.6049963 133.07276321 10.6049963 133.07276321 10.59636593 134.28816605 C10.3043787 148.48568363 4.80551856 161.39103067 -4.98420048 171.73299026 C-10.55806125 176.65723561 -17.04667288 180.80524209 -23.69904423 184.13142776 C-23.77534955 190.55428296 -23.82775102 196.97702046 -23.86383915 203.40022659 C-23.87888978 205.58353926 -23.89933497 207.76682188 -23.92536259 209.95003128 C-23.96190941 213.09520782 -23.97880821 216.23998325 -23.99201298 219.38533401 C-24.00749683 220.35539886 -24.02298069 221.32546371 -24.03893375 222.32492447 C-24.04068861 229.45320276 -23.09609512 234.28088076 -18.38654423 239.88142776 C-11.59433004 245.56793266 -5.8334004 245.53926234 2.69939327 245.42439651 C3.88949001 245.42015167 5.07958675 245.41590683 6.30574703 245.41153336 C10.09604953 245.39477945 13.88581475 245.35713193 17.67595577 245.31892776 C20.25016683 245.30387674 22.82438624 245.29018907 25.39861202 245.27791214 C31.69957569 245.24488659 38.00022734 245.19471921 44.30095577 245.13142776 C44.32077511 244.00124222 44.34059444 242.87105667 44.36101437 241.70662308 C44.43714457 237.50945813 44.52585056 233.3126365 44.61833858 229.11580276 C44.65659769 227.30011656 44.69145594 225.48435535 44.72283077 223.66853714 C44.76854807 221.05693654 44.82653113 218.44585088 44.88689327 215.83455276 C44.89844448 215.02399429 44.90999569 214.21343582 44.92189693 213.37831497 C45.10799302 206.25573019 45.10799302 206.25573019 47.30095577 203.13142776 C49.97728603 201.04983756 51.41849245 201.13555186 54.86345577 201.25642776 C58.30095577 202.13142776 58.30095577 202.13142776 59.9838171 203.62849808 C61.95288621 207.37027685 61.78065523 210.88206391 61.81267452 215.05330276 C61.83062572 215.91328873 61.84857693 216.77327469 61.86707211 217.65932083 C61.92115615 220.39997361 61.9550644 223.14045242 61.98845577 225.88142776 C62.02163056 227.74212904 62.05612038 229.60280738 62.0919714 231.46345901 C62.17688146 236.01932304 62.24370162 240.57513564 62.30095577 245.13142776 C102.8034602 245.24586689 143.30594356 245.33397347 183.80857736 245.38675441 C188.59005402 245.39300796 193.37153037 245.39947957 198.15300655 245.40608597 C199.580868 245.4080533 199.580868 245.4080533 201.03757513 245.41006037 C216.45165244 245.43181815 231.86563654 245.47124175 247.27965856 245.51719175 C263.09534493 245.56394598 278.91098247 245.59172098 294.72673512 245.60187024 C304.48629483 245.60873154 314.24559106 245.63040382 324.00506967 245.6710101 C330.69711179 245.6974357 337.38901765 245.70542917 344.08110815 245.69893465 C347.94243806 245.69573145 351.80330748 245.70064855 355.66455555 245.72745514 C359.85282007 245.75631941 364.04010462 245.74636455 368.22844601 245.73270035 C369.44635578 245.74726456 370.66426556 245.76182876 371.91908169 245.77683431 C378.93441362 245.71487231 383.97167704 244.93536665 389.30095577 240.13142776 C392.81764123 235.62285667 394.42972605 232.16274035 394.41448116 226.47639847 C394.41436787 225.06527534 394.41436787 225.06527534 394.41425228 223.62564468 C394.409091 222.61306091 394.40392971 221.60047714 394.39861202 220.55720901 C394.39719707 219.51823975 394.39578213 218.47927048 394.3943243 217.40881729 C394.38872233 214.08715828 394.37616949 210.76556643 394.36345577 207.44392776 C394.35844103 205.1932777 394.35387808 202.94262657 394.3497839 200.69197464 C394.33875226 195.1717694 394.32201221 189.65160338 394.30095577 184.13142776 C393.35341427 183.67542191 392.40587276 183.21941605 391.42961788 182.74959183 C390.16651474 182.1324137 388.90358443 181.51488177 387.64079952 180.89705276 C387.01862545 180.59879593 386.39645138 180.30053909 385.75542355 179.99324417 C372.53916948 173.49131531 364.72995264 162.33763603 360.02751827 148.63924026 C356.11795459 135.14493982 357.39477208 120.66416809 363.80876827 108.20174026 C370.74506577 96.55521283 379.8136603 89.76605687 391.30095577 83.13142776 C392.29095577 82.47142776 393.28095577 81.81142776 394.30095577 81.13142776 C394.77234613 79.01438404 394.77234613 79.01438404 394.72087765 76.53328323 C394.74474545 75.10071686 394.74474545 75.10071686 394.76909542 73.63920975 C394.76929684 72.60281357 394.76949825 71.56641739 394.76970577 70.49861526 C394.78112606 68.89991089 394.78112606 68.89991089 394.79277706 67.26890945 C394.80360171 65.00761128 394.80642163 62.74626301 394.80193233 60.48494339 C394.8009654 57.04072003 394.8424495 53.59876355 394.88689327 50.15486526 C394.8921043 47.95695323 394.8947884 45.75903347 394.89470577 43.56111526 C394.91929867 42.02473907 394.91929867 42.02473907 394.94438839 40.45732498 C394.88087961 33.81014156 393.73298808 29.2100272 389.30095577 24.13142776 C384.48831785 19.89800278 380.37514635 18.00585564 373.9811058 18.00837994 C372.87089626 18.00638889 371.76068672 18.00439784 370.61683446 18.00234646 C368.77979633 18.00671572 368.77979633 18.00671572 366.90564632 18.01117325 C365.60859695 18.01031882 364.31154758 18.0094644 362.97519368 18.00858408 C359.36766174 18.00634228 355.76015934 18.01035613 352.15263116 18.01536214 C348.26512201 18.01967094 344.37761459 18.01821991 340.49010372 18.01745987 C333.75228447 18.01693491 327.01447488 18.02007882 320.27665806 18.02569771 C310.53484401 18.03381646 300.79303464 18.03642831 291.05121758 18.0376857 C275.2466843 18.03987563 259.44215617 18.04653411 243.63762569 18.05598831 C228.28280825 18.06516396 212.9279922 18.07224405 197.57317257 18.07649612 C196.15403843 18.07689021 196.15403843 18.07689021 194.70623491 18.07729226 C189.96009623 18.07859727 185.21395755 18.07986098 180.46781886 18.08110416 C141.07886089 18.09147493 101.68990867 18.10909164 62.30095577 18.13142776 C62.29161007 18.77692581 62.28226437 19.42242386 62.27263546 20.08748245 C62.21886476 23.0195672 62.13523237 25.95006785 62.05095577 28.88142776 C62.03677608 29.89720901 62.0225964 30.91299026 62.00798702 31.95955276 C61.76122417 39.46114351 61.76122417 39.46114351 59.46892452 42.79939651 C56.19520722 44.81081561 54.0616181 44.72521655 50.30095577 44.13142776 C47.30048204 42.04337879 45.56504629 40.40736335 44.80852413 36.75227737 C44.58463029 33.93233573 44.50555299 31.14756745 44.48845577 28.31892776 C44.46331905 27.3398848 44.43818233 26.36084183 44.4122839 25.35213089 C44.35356914 22.9448258 44.31717597 20.53933215 44.30095577 18.13142776 C37.04190999 18.05511573 29.7829684 18.00271793 22.52361202 17.96663284 C20.05612478 17.95158324 17.58866412 17.93113886 15.12126827 17.90510941 C11.56651386 17.8685585 8.01211438 17.85166259 4.45720577 17.83845901 C3.36105953 17.82297516 2.26491329 17.8074913 1.1355505 17.79153824 C-5.85178497 17.79001655 -12.08122023 18.18408852 -17.72248173 22.77986526 Z " fill="#0A0A0A" transform="translate(326.6990442276001,253.86857223510742)"/>
<path d="M0 0 C83.08286517 0 83.08286517 0 97.94921875 13.7109375 C104.73273273 21.2826312 106.38385143 29.69795236 106.2734375 39.546875 C105.55095541 48.67079166 101.83290083 55.94761088 95 62 C92.42211529 63.85102055 89.79133293 65.4919552 87 67 C88.14275391 67.4021875 88.14275391 67.4021875 89.30859375 67.8125 C100.16472024 71.93267784 107.27730328 77.07861871 112.125 87.80078125 C115.48776324 96.25272635 115.29797259 107.43912443 112.375 116.0625 C107.17768753 128.03261687 98.31657981 134.95273032 86.48046875 139.95703125 C60.03661446 147.88128388 21.24778479 143 0 143 C0 95.81 0 48.62 0 0 Z " fill="#0A0A0A" transform="translate(216,560)"/>
<path d="M0 0 C0.79921875 -0.02835937 1.5984375 -0.05671875 2.421875 -0.0859375 C10.27355224 1.19375575 17.406788 6.87165297 24 11.0625 C33.09444558 16.79674028 42.23798132 22.43660679 51.4375 28 C60.74218956 33.63024947 70.02850884 39.28756562 79.25854492 45.03979492 C82.90319612 47.31077379 86.55095404 49.56727481 90.25390625 51.7421875 C102.84835914 59.17007743 102.84835914 59.17007743 105.25 66.375 C105.48828125 68.35546875 105.48828125 68.35546875 105.5625 70.5625 C105.59988281 71.27792969 105.63726563 71.99335938 105.67578125 72.73046875 C104.86740242 77.75131708 103.16197263 81.77998661 99.1940918 85.09008789 C96.65971445 86.772028 94.08067681 88.30742587 91.4375 89.8125 C90.4889917 90.37541748 89.5404834 90.93833496 88.56323242 91.51831055 C85.80174576 93.1542535 83.02686735 94.76535825 80.25 96.375 C77.84771284 97.80204408 75.4555959 99.24501033 73.0625 100.6875 C72.48677246 101.03095459 71.91104492 101.37440918 71.31787109 101.72827148 C65.19529614 105.38290066 59.131331 109.13203736 53.0625 112.875 C44.0047871 118.45717962 34.93954017 124.0266215 25.85165405 129.55957031 C24.62849986 130.30465113 23.4058537 131.05056666 22.18374634 131.79736328 C20.47289035 132.84252102 18.75991949 133.88421442 17.046875 134.92578125 C15.58266113 135.81777222 15.58266113 135.81777222 14.08886719 136.7277832 C7.54333381 140.5257462 2.83928316 142.60474496 -4.75 141.375 C-10.00436001 139.35063185 -13.13254716 136.53514559 -15.88893318 131.57364082 C-17.60804249 127.18408148 -17.29416785 122.58806441 -17.25170898 117.93530273 C-17.25711197 116.80275055 -17.26251495 115.67019836 -17.26808167 114.50332642 C-17.28055679 110.77148048 -17.26408591 107.04040775 -17.24609375 103.30859375 C-17.24624875 100.70980285 -17.24773796 98.11101172 -17.25050354 95.51222229 C-17.25188696 90.07094211 -17.23977393 84.6299455 -17.21655273 79.1887207 C-17.18993269 72.90779558 -17.18820197 66.62723989 -17.1999411 60.34627765 C-17.21073813 54.28979218 -17.2044155 48.23347524 -17.19038582 42.1769886 C-17.18587133 39.60577851 -17.18553449 37.03455756 -17.18945122 34.46334648 C-17.19236264 30.87043889 -17.17585898 27.27813414 -17.15405273 23.68530273 C-17.15855438 22.6238353 -17.16305603 21.56236786 -17.16769409 20.46873474 C-17.11286461 15.02938236 -16.87089237 11.04309497 -13.75 6.375 C-9.51936862 2.4698018 -5.81661328 0.09262123 0 0 Z " fill="#070707" transform="translate(483.75,315.625)"/>
<path d="M0 0 C11.68041373 8.78175012 18.64480485 20.20535555 21.75 34.4375 C22.93564129 51.33288836 20.6421902 66.6770163 9.44921875 80.046875 C-1.23771375 91.23263179 -14.40374233 98.62272254 -30.1015625 99.203125 C-47.09657812 99.5008233 -61.67991802 96.35215088 -74.4375 84.1875 C-86.46725159 71.29987309 -90.56708271 56.91830896 -90.2734375 39.68359375 C-89.67316026 25.08378141 -82.99055389 12.97218264 -72.5 3.06640625 C-51.62528835 -14.1878476 -22.33276088 -14.86638466 0 0 Z " fill="#090A0A" transform="translate(433,607)"/>
<path d="M0 0 C0.928125 0.38929688 1.85625 0.77859375 2.8125 1.1796875 C17.01818272 8.00002949 25.30292559 19.74950977 31 34 C34.25036321 45.16508944 32.96111439 60.26927619 29 71 C28.70609375 71.82113281 28.4121875 72.64226562 28.109375 73.48828125 C22.42916491 86.77742949 10.56578779 96.65033621 -2.54296875 102.046875 C-17.70347103 107.43050395 -35.24098779 106.52673574 -49.734375 99.71484375 C-63.63860081 91.96388557 -73.19241997 80.14646182 -78 65 C-81.519142 51.72645767 -79.73785358 36.06789192 -73.45703125 24.046875 C-64.81810337 9.57617659 -52.00783918 0.66169831 -35.7734375 -3.58203125 C-23.74400174 -5.39491805 -11.21302103 -4.84475637 0 0 Z " fill="#090909" transform="translate(545,601)"/>
<path d="M0 0 C9.9 0 19.8 0 30 0 C30 26.07 30 52.14 30 79 C31.31990111 77.68009889 32.44962274 76.23982059 33.625 74.7890625 C34.4308252 73.79555786 34.4308252 73.79555786 35.25292969 72.78198242 C35.82946289 72.07017822 36.40599609 71.35837402 37 70.625 C38.19256554 69.15483207 39.38527431 67.68478033 40.578125 66.21484375 C41.16400391 65.49280762 41.74988281 64.77077148 42.35351562 64.02685547 C45.17949138 60.54802233 48.01861929 57.08005535 50.859375 53.61328125 C52.41324812 51.71630841 53.96506249 49.8176486 55.515625 47.91796875 C56.33546875 46.91378906 57.1553125 45.90960937 58 44.875 C59.11375 43.50988281 59.11375 43.50988281 60.25 42.1171875 C61.13277792 41.04918385 62.02022231 39.97977769 63 39 C65.52094076 38.91152257 68.01430893 38.88472699 70.53515625 38.90234375 C71.66503212 38.90446617 71.66503212 38.90446617 72.81773376 38.90663147 C75.2326956 38.91224624 77.64756601 38.92480117 80.0625 38.9375 C81.69596221 38.9425131 83.32942586 38.94707634 84.96289062 38.95117188 C88.97529585 38.96222046 92.98763241 38.97949494 97 39 C95.25270649 42.02086488 93.4942948 44.77087266 91.1796875 47.3828125 C90.64915771 47.98681885 90.11862793 48.5908252 89.57202148 49.21313477 C89.01200439 49.84405029 88.4519873 50.47496582 87.875 51.125 C83.25443111 56.3896753 78.7372766 61.7102631 74.33984375 67.1640625 C72.5289563 69.35889436 70.69243518 71.51026332 68.81640625 73.6484375 C68.26734619 74.2767749 67.71828613 74.9051123 67.15258789 75.55249023 C66.0730912 76.78380859 64.98786502 78.0101338 63.89624023 79.23071289 C60.38853148 83.12505295 60.38853148 83.12505295 59 88 C59.96920875 89.97820885 59.96920875 89.97820885 61.578125 91.8359375 C62.15651123 92.56329102 62.73489746 93.29064453 63.33081055 94.04003906 C63.96414307 94.81057617 64.59747559 95.58111328 65.25 96.375 C65.89171143 97.17647461 66.53342285 97.97794922 67.19458008 98.80371094 C68.50392346 100.43847925 69.81813645 102.06935933 71.13720703 103.69628906 C73.68983929 106.85312235 76.18885323 110.05042337 78.6875 113.25 C81.43528511 116.74833284 84.19007177 120.24109223 86.94921875 123.73046875 C87.4388208 124.35083008 87.92842285 124.97119141 88.43286133 125.61035156 C89.35711375 126.78135294 90.28261918 127.95136709 91.2097168 129.12011719 C100 140.26485089 100 140.26485089 100 143 C95.19911469 143.29933577 90.40377016 143.51551235 85.59570312 143.65917969 C83.96550854 143.71910384 82.33594753 143.80069064 80.70800781 143.90527344 C67.60606599 144.72514955 67.60606599 144.72514955 63.3067627 141.87911987 C59.87198125 138.71186226 57.47261562 134.94981384 55 131 C53.51499905 129.00955461 52.01697561 127.02868557 50.5 125.0625 C48.55912327 122.45164091 46.62129895 119.83854602 44.68457031 117.22460938 C43.33851887 115.41509999 41.9827181 113.61326557 40.625 111.8125 C40.20798828 111.24732666 39.79097656 110.68215332 39.36132812 110.09985352 C37.29730453 107.37546022 36.32166818 106.10722273 33 105 C32.690625 105.639375 32.38125 106.27875 32.0625 106.9375 C31 109 31 109 30 110 C29.84019563 112.44608998 29.74070553 114.86731058 29.68359375 117.31640625 C29.66281265 118.04746078 29.64203156 118.77851532 29.62062073 119.53172302 C29.55504976 121.87521656 29.49620568 124.21882539 29.4375 126.5625 C29.39432192 128.14779855 29.35070787 129.73308529 29.30664062 131.31835938 C29.19853718 135.21212298 29.09952117 139.10596958 29 143 C19.43 143 9.86 143 0 143 C0 95.81 0 48.62 0 0 Z " fill="#090909" transform="translate(591,560)"/>
<path d="M0 0 C9.24 0 18.48 0 28 0 C28 8.25 28 16.5 28 25 C36.91 25 45.82 25 55 25 C55 33.58 55 42.16 55 51 C46.09 51 37.18 51 28 51 C28.09706769 57.29918201 28.19988305 63.59772658 28.31738281 69.89648438 C28.35560153 72.03802816 28.39046668 74.17963457 28.421875 76.32128906 C28.46767979 79.40452417 28.52564917 82.48733071 28.5859375 85.5703125 C28.60326431 87.00034103 28.60326431 87.00034103 28.62094116 88.45925903 C28.72823053 93.32153941 28.99298277 97.47831358 31 102 C34.25655635 104.61875153 37.83483138 104.23528694 41.875 104.1875 C43.06867187 104.18105469 44.26234375 104.17460938 45.4921875 104.16796875 C49.43529191 104.04773447 49.43529191 104.04773447 55 103 C55 111.25 55 119.5 55 128 C41.12177947 131.50607676 26.21394997 134.05823948 13 127 C6.50781285 123.09356619 2.4170431 116.47480141 0.4206543 109.27752686 C-0.50444227 104.26882422 -0.23937649 99.14105189 -0.1953125 94.06640625 C-0.1924826 92.83333237 -0.18965271 91.60025848 -0.18673706 90.32981873 C-0.1755786 86.40727875 -0.15048151 82.4849705 -0.125 78.5625 C-0.11383396 75.89648772 -0.10583976 73.23047761 -0.09765625 70.56445312 C-0.07565338 64.04288002 -0.04115297 57.52147925 0 51 C-5.94 51 -11.88 51 -18 51 C-18 42.42 -18 33.84 -18 25 C-12.06 25 -6.12 25 0 25 C0 16.75 0 8.5 0 0 Z " fill="#080909" transform="translate(753,574)"/>
<path d="M0 0 C9.57 0 19.14 0 29 0 C29 34.32 29 68.64 29 104 C19.43 104 9.86 104 0 104 C0 69.68 0 35.36 0 0 Z " fill="#080808" transform="translate(696,599)"/>
<path d="M0 0 C6.25148948 4.08751235 9.43734962 9.95600194 11.6171875 16.9921875 C13.37875419 26.23142503 11.59870448 34.74195876 6.9375 42.84765625 C3.05533996 48.1182277 -2.63809951 51.27031987 -8.93359375 52.63671875 C-17.57288891 53.6602276 -24.00467801 52.1956219 -31.25 47.4375 C-37.6389428 42.23452861 -40.09321237 35.59950194 -41 27.5625 C-41.35422002 18.43865096 -39.48508132 10.75143152 -33.60546875 3.65234375 C-24.34659807 -5.87685892 -11.08326592 -6.57187783 0 0 Z " fill="#FDFDFD" transform="translate(536,627)"/>
<path d="M0 0 C5.85271168 3.90180778 9.38575391 9.16741423 11.62109375 15.859375 C13.27195189 25.18587256 12.92056035 35.2021343 7.5234375 43.18359375 C3.05962669 48.73787889 -1.76908514 51.76168346 -8.5625 53.75 C-16.15212045 54.52842261 -22.22942089 53.62327978 -29 50 C-34.36149466 45.51888213 -38.84975301 40.01425128 -40 33 C-40.85718926 21.85653962 -40.45997129 13.97213597 -33.375 5.25 C-24.5703922 -4.01885075 -11.42149792 -6.339573 0 0 Z " fill="#FDFDFD" transform="translate(413,626)"/>
<path d="M0 0 C5.61 -0.04125 11.22 -0.0825 17 -0.125 C18.75441406 -0.14320801 20.50882812 -0.16141602 22.31640625 -0.18017578 C23.73176774 -0.18602569 25.14713263 -0.19112006 26.5625 -0.1953125 C27.27728516 -0.20554443 27.99207031 -0.21577637 28.72851562 -0.22631836 C36.270156 -0.22888704 43.06396215 1.00833181 49 6 C52.89272105 11.01956136 53.64792115 15.02146703 53.37890625 21.34765625 C52.7120141 26.01590133 51.20420348 29.29200347 47.3515625 32.27734375 C41.21090008 36.04486807 35.42952654 36.14384332 28.41796875 36.09765625 C27.19670036 36.09553383 27.19670036 36.09553383 25.95075989 36.09336853 C23.36296844 36.08779317 20.77526508 36.07524524 18.1875 36.0625 C16.42773563 36.05748181 14.66796989 36.05291946 12.90820312 36.04882812 C8.60540791 36.03868481 4.302802 36.0191047 0 36 C0 24.12 0 12.24 0 0 Z " fill="#FEFEFE" transform="translate(246,642)"/>
<path d="M0 0 C4.62 -0.04125 9.24 -0.0825 14 -0.125 C15.44117188 -0.14320801 16.88234375 -0.16141602 18.3671875 -0.18017578 C27.68556334 -0.22038592 35.4701487 -0.12894873 43 6 C46.21000974 9.95901201 46.5106001 12.97909898 46 18 C45.01356761 22.0833713 43.74886112 25.16036783 40.9375 28.3125 C32.16354842 33.35285517 23.27265743 33.38470853 13.375 33.1875 C6.754375 33.0946875 6.754375 33.0946875 0 33 C0 22.11 0 11.22 0 0 Z " fill="#FEFEFE" transform="translate(246,585)"/>
<path d="M0 0 C3.88446678 2.58964452 6.69907021 5.64814041 8.8125 9.875 C9.35285594 14.8002115 9.35685469 18.74441718 7.1875 23.25 C3.85148254 26.9371772 1.31302628 29.50483146 -3.7734375 30.2578125 C-10.12396152 30.51879294 -14.14823751 29.78299948 -19.1875 25.875 C-22.47108448 22.3388321 -23.46788259 19.59323206 -23.6875 14.875 C-23.4827398 10.17257599 -22.35185311 7.4669684 -19.1875 3.875 C-13.37010796 -1.37484159 -7.3959011 -2.61031804 0 0 Z " fill="#080808" transform="translate(717.1875,561.125)"/>
<path d="M0 0 C3.06312016 2.79861674 4.23893896 5.01138188 4.53344727 9.06835938 C4.56642338 10.65985256 4.5761343 12.25194494 4.56640625 13.84375 C4.57570412 15.11381897 4.57570412 15.11381897 4.58518982 16.4095459 C4.5922747 18.19473118 4.58913721 19.97998271 4.57641602 21.76513672 C4.56254173 24.49179911 4.59664657 27.21503305 4.63476562 29.94140625 C4.63571683 31.67968834 4.63385792 33.41797471 4.62890625 35.15625 C4.64216446 35.96783569 4.65542267 36.77942139 4.66908264 37.61560059 C4.59941499 41.86406793 4.35545424 43.5377786 1.67944336 47.01757812 C-1 49 -1 49 -4.5 49.5625 C-8.70500613 48.88669544 -10.13195236 48.14051971 -13 45 C-13.73714949 41.92894254 -13.67720034 38.92709715 -13.62890625 35.78125 C-13.63131821 34.88635864 -13.63373016 33.99146729 -13.63621521 33.06945801 C-13.63523694 31.1798865 -13.62184793 29.29028628 -13.59692383 27.40087891 C-13.56261571 24.50975112 -13.57626434 21.62168015 -13.59570312 18.73046875 C-13.58880452 16.89321616 -13.579132 15.05597146 -13.56640625 13.21875 C-13.57384605 11.92330261 -13.57384605 11.92330261 -13.58143616 10.60168457 C-13.46395915 4.61046945 -13.46395915 4.61046945 -11.08959961 1.48632812 C-7.05511523 -1.38339274 -4.85304755 -1.17142527 0 0 Z " fill="#0B0B0B" transform="translate(385,386)"/>
<path d="M0 0 C3.42204461 1.02597613 4.87978137 2.866231 7.09765625 5.62890625 C7.81022447 8.51040777 7.77620286 11.2971283 7.7265625 14.25390625 C7.72897446 15.07842285 7.73138641 15.90293945 7.73387146 16.75244141 C7.73289471 18.49060897 7.71954192 20.22880829 7.69458008 21.96679688 C7.66026015 24.62087121 7.67393025 27.27161539 7.69335938 29.92578125 C7.68646056 31.61850369 7.67678785 33.31121758 7.6640625 35.00390625 C7.66902237 35.79361816 7.67398224 36.58333008 7.67909241 37.39697266 C7.59564902 41.31862613 7.35053402 43.22896943 5.20092773 46.62866211 C3.09765625 48.62890625 3.09765625 48.62890625 0.87890625 49.2578125 C0.12609375 49.23589844 -0.62671875 49.21398437 -1.40234375 49.19140625 C-2.15515625 49.19269531 -2.90796875 49.19398438 -3.68359375 49.1953125 C-6.88266161 48.37864905 -7.91304721 47.2824125 -9.90234375 44.62890625 C-10.50223947 41.6312032 -10.4629226 38.6779389 -10.43359375 35.62890625 C-10.43742065 34.75621094 -10.44124756 33.88351562 -10.44519043 32.984375 C-10.44790865 31.14191533 -10.44055369 29.29941701 -10.42382812 27.45703125 C-10.40241623 24.63844691 -10.42363176 21.8224114 -10.44921875 19.00390625 C-10.44657546 17.21223396 -10.44145044 15.42056326 -10.43359375 13.62890625 C-10.44169067 12.78714844 -10.4497876 11.94539063 -10.45812988 11.078125 C-10.3974243 7.28606277 -10.34728277 5.25814242 -8.11523438 2.1015625 C-5.45188022 0.32912734 -3.1690646 0.10710556 0 0 Z " fill="#090909" transform="translate(381.90234375,317.37109375)"/>
<path d="M0 0 C9.9 0 19.8 0 30 0 C30 26.07 30 52.14 30 79 C29.34 79 28.68 79 28 79 C28 53.59 28 28.18 28 2 C19.42 2 10.84 2 2 2 C2.02320313 5.36960937 2.04640625 8.73921875 2.0703125 12.2109375 C2.08589722 15.46418887 2.09804869 18.71743614 2.10986328 21.97070312 C2.11993859 24.23667249 2.13359918 26.50262881 2.15087891 28.76855469 C2.17506011 32.02021501 2.18646763 35.27170387 2.1953125 38.5234375 C2.20563507 39.54118256 2.21595764 40.55892761 2.22659302 41.60751343 C2.22674408 42.54833771 2.22689514 43.48916199 2.22705078 44.45849609 C2.231492 45.28900482 2.23593323 46.11951355 2.24050903 46.97518921 C2 49 2 49 0 51 C0 34.17 0 17.34 0 0 Z " fill="#1D1D1D" transform="translate(591,560)"/>
<path d="M0 0 C-1 3 -1 3 -3 4 C-4.08446999 7.25340998 -4.12928314 9.64418799 -4.1328125 13.06640625 C-4.13410156 14.27490234 -4.13539063 15.48339844 -4.13671875 16.72851562 C-4.13285156 17.99373047 -4.12898438 19.25894531 -4.125 20.5625 C-4.12886719 21.80064453 -4.13273437 23.03878906 -4.13671875 24.31445312 C-5.04324076 35.75907559 -5.04324076 35.75907559 -2 46 C2.01657143 46.22918242 2.01657143 46.22918242 6 46 C8.62346892 43.37653108 8.25936502 41.4774326 8.30354309 37.90419006 C8.30263168 37.07084641 8.30172028 36.23750275 8.30078125 35.37890625 C8.30506638 34.52320541 8.3093515 33.66750458 8.31376648 32.78587341 C8.31951468 30.97436407 8.32000644 29.16283164 8.31567383 27.35131836 C8.3125164 24.57691095 8.33595741 21.80357214 8.36132812 19.02929688 C8.36360129 17.27083468 8.36430453 15.51236961 8.36328125 13.75390625 C8.372491 12.92258682 8.38170074 12.0912674 8.39118958 11.23475647 C8.53779821 6.93074413 8.53779821 6.93074413 6.47673035 3.38194275 C5.98940933 2.92590164 5.50208832 2.46986053 5 2 C5 1.34 5 0.68 5 0 C8.16115776 1.36983503 8.9927092 1.9890638 11 5 C11.23248271 7.91464775 11.3520604 10.73131234 11.37109375 13.6484375 C11.38463646 14.92275131 11.38463646 14.92275131 11.39845276 16.22280884 C11.41295742 18.01992264 11.42184254 19.81708928 11.42553711 21.61425781 C11.43742777 24.35833137 11.48660312 27.1001515 11.53710938 29.84375 C11.54657457 31.59113487 11.55380914 33.33853354 11.55859375 35.0859375 C11.57812607 35.9037973 11.59765839 36.7216571 11.61778259 37.56430054 C11.58407866 41.8384727 11.37005213 43.51718086 8.68383789 47.02197266 C6 49 6 49 2.5 49.5625 C-1.70500613 48.88669544 -3.13195236 48.14051971 -6 45 C-6.73714949 41.92894254 -6.67720034 38.92709715 -6.62890625 35.78125 C-6.63131821 34.88635864 -6.63373016 33.99146729 -6.63621521 33.06945801 C-6.63523694 31.1798865 -6.62184793 29.29028628 -6.59692383 27.40087891 C-6.56261571 24.50975112 -6.57626434 21.62168015 -6.59570312 18.73046875 C-6.58880452 16.89321616 -6.579132 15.05597146 -6.56640625 13.21875 C-6.57384605 11.92330261 -6.57384605 11.92330261 -6.58143616 10.60168457 C-6.46426486 4.62606043 -6.46426486 4.62606043 -4.08959961 1.42382812 C-2 0 -2 0 0 0 Z " fill="#020202" transform="translate(378,386)"/>
<path d="M0 0 C1.72030444 3.44060887 0.9941637 7.38786004 0.87890625 11.1640625 C0.85824097 11.96803467 0.83757568 12.77200684 0.81628418 13.6003418 C0.73741452 16.60871674 0.64940323 19.6168464 0.5625 22.625 C0.2840625 32.710625 0.2840625 32.710625 0 43 C-17.49 42.67 -34.98 42.34 -53 42 C-53 41.67 -53 41.34 -53 41 C-36.17 41 -19.34 41 -2 41 C-2.07911319 28.62918493 -2.07911319 28.62918493 -2.18017578 16.25854492 C-2.18601708 14.70752232 -2.1911135 13.15649666 -2.1953125 11.60546875 C-2.20554443 10.80032837 -2.21577637 9.99518799 -2.22631836 9.16564941 C-2.22754548 5.25053494 -2.22246818 3.33370227 0 0 Z " fill="#202021" transform="translate(373,458)"/>
<path d="M0 0 C0.33 0 0.66 0 1 0 C1 10.89 1 21.78 1 33 C-7.58 33 -16.16 33 -25 33 C-24.67 32.34 -24.34 31.68 -24 31 C-16.41 31 -8.82 31 -1 31 C-1.01160156 28.84597656 -1.02320313 26.69195313 -1.03515625 24.47265625 C-1.04294737 22.39428861 -1.04902381 20.31592257 -1.05493164 18.23754883 C-1.05997101 16.78929927 -1.06680253 15.34105483 -1.07543945 13.89282227 C-1.08752247 11.81525412 -1.09323211 9.73775303 -1.09765625 7.66015625 C-1.10289307 6.40855713 -1.10812988 5.15695801 -1.11352539 3.86743164 C-1 1 -1 1 0 0 Z " fill="#010101" transform="translate(619,670)"/>
<path d="M0 0 C0.66 0 1.32 0 2 0 C2.33 17.82 2.66 35.64 3 54 C2.01 54.495 2.01 54.495 1 55 C-0.26372044 52.47255912 -0.12022795 50.73619692 -0.11352539 47.90771484 C-0.11344986 46.84676605 -0.11337433 45.78581726 -0.11329651 44.69271851 C-0.10813522 43.54373077 -0.10297394 42.39474304 -0.09765625 41.2109375 C-0.0962413 40.03737701 -0.09482635 38.86381653 -0.09336853 37.6546936 C-0.08775689 33.89477015 -0.07520238 30.13490555 -0.0625 26.375 C-0.0574865 23.83073002 -0.05292333 21.28645912 -0.04882812 18.7421875 C-0.03778368 12.49477147 -0.02103418 6.24738994 0 0 Z " fill="#020202" transform="translate(285,293)"/>
<path d="M0 0 C5.78256641 0 8.92482854 2.90859371 12.9453125 6.671875 C18.17548808 12.59808155 20.13516614 19.85865513 20.1875 27.625 C20.20876953 29.06746094 20.20876953 29.06746094 20.23046875 30.5390625 C20 33 20 33 18 35 C17.97421875 34.10539063 17.9484375 33.21078125 17.921875 32.2890625 C17.4713729 22.68517678 16.34276965 12.94586319 9 6 C6.07517514 4.1751526 3.07998435 2.54657334 0 1 C0 0.67 0 0.34 0 0 Z " fill="#020202" transform="translate(407,623)"/>
<path d="M0 0 C1.28825684 0.01047363 2.57651367 0.02094727 3.90380859 0.03173828 C4.93167984 0.03598312 4.93167984 0.03598312 5.98031616 0.04031372 C8.17113636 0.05151797 10.36154925 0.07662219 12.55224609 0.10205078 C14.03661519 0.1120803 15.5209907 0.1212062 17.00537109 0.12939453 C20.6461287 0.15145784 24.28664766 0.18598903 27.92724609 0.22705078 C27.59724609 0.88705078 27.26724609 1.54705078 26.92724609 2.22705078 C25.63306763 2.25677979 25.63306763 2.25677979 24.31274414 2.28710938 C21.10887653 2.36524722 17.90538715 2.4519416 14.7019043 2.54443359 C13.31592703 2.58269428 11.92985144 2.61755235 10.54370117 2.64892578 C8.55022969 2.69463777 6.55707696 2.75364003 4.56396484 2.81298828 C3.36473389 2.84440918 2.16550293 2.87583008 0.92993164 2.90820312 C-2.25158096 3.01134572 -2.25158096 3.01134572 -5.07275391 5.22705078 C-5.07275391 0.99500453 -4.17607681 0.3085771 0 0 Z " fill="#010101" transform="translate(657.07275390625,598.77294921875)"/>
<path d="M0 0 C1 3 1 3 0.00390625 5.48046875 C-0.47175781 6.37378906 -0.94742187 7.26710938 -1.4375 8.1875 C-1.91058594 9.08855469 -2.38367188 9.98960937 -2.87109375 10.91796875 C-3.42990234 11.94857422 -3.42990234 11.94857422 -4 13 C-4.66 13 -5.32 13 -6 13 C-6 13.66 -6 14.32 -6 15 C-11.09114126 19.33288618 -15.43064064 21.00193407 -22 22 C-20.68141152 19.36282304 -19.52106941 19.25368729 -16.8125 18.1875 C-7.60051367 14.16454394 -4.36813003 8.84468882 0 0 Z " fill="#040404" transform="translate(425,659)"/>
<path d="M0 0 C0 8.25 0 16.5 0 25 C-1.32 24.67 -2.64 24.34 -4 24 C-3.34 24 -2.68 24 -2 24 C-2 17.07 -2 10.14 -2 3 C-2.66 2.67 -3.32 2.34 -4 2 C-1 0 -1 0 0 0 Z " fill="#000000" transform="translate(808,677)"/>
<path d="M0 0 C7.91205891 6.29735301 14.16098961 13.56243279 18 23 C17.59375 25.23046875 17.59375 25.23046875 17 27 C16.52691406 26.03320312 16.05382812 25.06640625 15.56640625 24.0703125 C11.68304058 16.35420787 7.80726326 10.0269192 1.6875 3.85546875 C0 2 0 2 0 0 Z " fill="#040404" transform="translate(317,344)"/>
<path d="M0 0 C0.33 0 0.66 0 1 0 C1.09796875 0.83402344 1.1959375 1.66804688 1.296875 2.52734375 C2.25014638 9.70153268 3.73538761 15.56443214 7 22 C7.67834587 23.66194738 8.35199575 25.32598903 9 27 C3.99666256 24.08138649 2.48474393 20.37252108 0.71484375 15.10546875 C-0.44625267 10.06136137 -0.32297919 5.1407521 0 0 Z " fill="#020202" transform="translate(701,383)"/>
<path d="M0 0 C0 0.66 0 1.32 0 2 C-6.27 2 -12.54 2 -19 2 C-18.67 1.34 -18.34 0.68 -18 0 C-15.32418734 -0.34077348 -12.74940712 -0.55977321 -10.0625 -0.6875 C-9.32064453 -0.73455078 -8.57878906 -0.78160156 -7.81445312 -0.83007812 C-2.27307398 -1.13653699 -2.27307398 -1.13653699 0 0 Z " fill="#030303" transform="translate(691,701)"/>
<path d="M0 0 C1 3 1 3 -0.375 5.8125 C-3.3237107 9.98461195 -7.69200046 12.40415412 -12 15 C-12.66 14.34 -13.32 13.68 -14 13 C-13.40832031 12.731875 -12.81664062 12.46375 -12.20703125 12.1875 C-6.11139009 9.1645393 -3.00875666 6.09311021 0 0 Z " fill="#010101" transform="translate(292,604)"/>
<path d="M0 0 C0 0.66 0 1.32 0 2 C-4.38461538 5 -4.38461538 5 -7 5 C-7.4021875 6.1446875 -7.4021875 6.1446875 -7.8125 7.3125 C-8.94424112 9.87380884 -9.91223401 11.19692938 -12 13 C-10.79255648 6.84203807 -9.12015917 4.62677941 -4 1 C-2 0 -2 0 0 0 Z " fill="#010101" transform="translate(479,317)"/>
<path d="M0 0 C4.51591742 3.13605376 6.6536612 6.1268348 9 11 C8.67 11.66 8.34 12.32 8 13 C6.66094733 11.2126038 5.32890934 9.41995047 4 7.625 C3.2575 6.62726563 2.515 5.62953125 1.75 4.6015625 C0 2 0 2 0 0 Z " fill="#020202" transform="translate(727,264)"/>
<path d="M0 0 C2.64 0 5.28 0 8 0 C8.33 0.99 8.66 1.98 9 3 C5.7 3 2.4 3 -1 3 C-0.67 2.01 -0.34 1.02 0 0 Z " fill="#0E0E0E" transform="translate(480,454)"/>
<path d="M0 0 C1.32 0.33 2.64 0.66 4 1 C3.67 5.29 3.34 9.58 3 14 C2.67 14 2.34 14 2 14 C1.93941406 13.40832031 1.87882813 12.81664062 1.81640625 12.20703125 C1.37987629 8.09021792 0.91328654 4.04455467 0 0 Z " fill="#2E2E2E" transform="translate(700,378)"/>
<path d="M0 0 C0.33 0.99 0.66 1.98 1 3 C-1.475 4.485 -1.475 4.485 -4 6 C-4 5.34 -4 4.68 -4 4 C-5.98 4 -7.96 4 -10 4 C-10 3.67 -10 3.34 -10 3 C-3.25 1.875 -3.25 1.875 -1 3 C-0.67 2.01 -0.34 1.02 0 0 Z " fill="#131313" transform="translate(387,293)"/>
<path d="M0 0 C4.55015893 1.51671964 6.50057264 5.16891053 9 9 C4.44984107 7.48328036 2.49942736 3.83108947 0 0 Z " fill="#030303" transform="translate(677,686)"/>
<path d="M0 0 C0.99 0.33 1.98 0.66 3 1 C3.33 2.65 3.66 4.3 4 6 C3.01 6.33 2.02 6.66 1 7 C0.67 4.69 0.34 2.38 0 0 Z " fill="#131212" transform="translate(686,400)"/>
</svg>
